REM DIRINDEX 1\2\3,1\2\4,1\2\5,1\2\6
REM DIRNAME folder01,folder02,folder03,folder04,folder05,folder06
TITLE ""
FILE "045 045.mp3" MP3
  TRACK 01 AUDIO
    TITLE "0:"
    INDEX 01 00:00:00
  TRACK 02 AUDIO
    TITLE "3:cjc157_1707"
    INDEX 01 00:00:09
  TRACK 03 AUDIO
    TITLE "0:"
    INDEX 01 00:01:36
  TRACK 04 AUDIO
    TITLE "4:cjc157_1708"
    INDEX 01 00:02:08
  TRACK 05 AUDIO
    TITLE "0:"
    INDEX 01 00:03:31
  TRACK 06 AUDIO
    TITLE "5:cjc157_1709"
    INDEX 01 00:04:07
  TRACK 07 AUDIO
    TITLE "0:"
    INDEX 01 00:08:23
  TRACK 08 AUDIO
    TITLE "3:cjc157_1710"
    INDEX 01 00:08:72
  TRACK 09 AUDIO
    TITLE "0:"
    INDEX 01 00:10:08
  TRACK 10 AUDIO
    TITLE "4:cjc157_1711"
    INDEX 01 00:10:55
  TRACK 11 AUDIO
    TITLE "0:"
    INDEX 01 00:12:05
  TRACK 12 AUDIO
    TITLE "5:cjc157_1712"
    INDEX 01 00:12:44
  TRACK 13 AUDIO
    TITLE "0:"
    INDEX 01 00:14:25
  TRACK 14 AUDIO
    TITLE "5:cjc157_1713"
    INDEX 01 00:14:68
  TRACK 15 AUDIO
    TITLE "0:"
    INDEX 01 00:18:37
  TRACK 16 AUDIO
    TITLE "3:cjc157_1714"
    INDEX 01 00:19:03
  TRACK 17 AUDIO
    TITLE "0:"
    INDEX 01 00:20:24
  TRACK 18 AUDIO
    TITLE "4:cjc157_1715"
    INDEX 01 00:20:69
  TRACK 19 AUDIO
    TITLE "0:"
    INDEX 01 00:22:13
  TRACK 20 AUDIO
    TITLE "5:cjc157_1716"
    INDEX 01 00:22:58
  TRACK 21 AUDIO
    TITLE "0:"
    INDEX 01 00:24:59
  TRACK 22 AUDIO
    TITLE "5:cjc157_1717"
    INDEX 01 00:25:33
  TRACK 23 AUDIO
    TITLE "0:"
    INDEX 01 00:27:41
  TRACK 24 AUDIO
    TITLE "3:cjc157_1718"
    INDEX 01 00:28:13
  TRACK 25 AUDIO
    TITLE "0:"
    INDEX 01 00:29:54
  TRACK 26 AUDIO
    TITLE "4:cjc157_1719"
    INDEX 01 00:30:24
  TRACK 27 AUDIO
    TITLE "0:"
    INDEX 01 00:31:39
  TRACK 28 AUDIO
    TITLE "5:cjc157_1720"
    INDEX 01 00:32:13
  TRACK 29 AUDIO
    TITLE "0:"
    INDEX 01 00:35:29
  TRACK 30 AUDIO
    TITLE "5:cjc157_1721"
    INDEX 01 00:35:74
  TRACK 31 AUDIO
    TITLE "0:"
    INDEX 01 00:37:73
  TRACK 32 AUDIO
    TITLE "3:cjc157_1722"
    INDEX 01 00:38:41
  TRACK 33 AUDIO
    TITLE "0:"
    INDEX 01 00:39:37
  TRACK 34 AUDIO
    TITLE "4:cjc157_1723"
    INDEX 01 00:40:11
  TRACK 35 AUDIO
    TITLE "0:"
    INDEX 01 00:41:20
  TRACK 36 AUDIO
    TITLE "5:cjc157_1724"
    INDEX 01 00:41:67
  TRACK 37 AUDIO
    TITLE "0:"
    INDEX 01 00:44:61
  TRACK 38 AUDIO
    TITLE "5:cjc157_1725"
    INDEX 01 00:45:32
  TRACK 39 AUDIO
    TITLE "0:"
    INDEX 01 00:49:04
  TRACK 40 AUDIO
    TITLE "5:cjc157_1726"
    INDEX 01 00:49:53
  TRACK 41 AUDIO
    TITLE "0:"
    INDEX 01 00:50:68
  TRACK 42 AUDIO
    TITLE "3:cjc157_1727"
    INDEX 01 00:51:36
  TRACK 43 AUDIO
    TITLE "0:"
    INDEX 01 00:53:00
  TRACK 44 AUDIO
    TITLE "4:cjc157_1728"
    INDEX 01 00:53:47
  TRACK 45 AUDIO
    TITLE "0:"
    INDEX 01 00:54:68
  TRACK 46 AUDIO
    TITLE "5:cjc157_1729"
    INDEX 01 00:55:36
  TRACK 47 AUDIO
    TITLE "0:"
    INDEX 01 00:57:68
  TRACK 48 AUDIO
    TITLE "3:cjc157_1730"
    INDEX 01 00:58:40
  TRACK 49 AUDIO
    TITLE "0:"
    INDEX 01 01:00:02
  TRACK 50 AUDIO
    TITLE "4:cjc157_1731"
    INDEX 01 01:00:49
  TRACK 51 AUDIO
    TITLE "0:"
    INDEX 01 01:01:60
  TRACK 52 AUDIO
    TITLE "5:cjc157_1732"
    INDEX 01 01:02:30
  TRACK 53 AUDIO
    TITLE "0:"
    INDEX 01 01:04:31
  TRACK 54 AUDIO
    TITLE "3:cjc157_1733"
    INDEX 01 01:05:03
  TRACK 55 AUDIO
    TITLE "0:"
    INDEX 01 01:06:59
  TRACK 56 AUDIO
    TITLE "4:cjc157_1734"
    INDEX 01 01:07:29
  TRACK 57 AUDIO
    TITLE "0:"
    INDEX 01 01:08:52
  TRACK 58 AUDIO
    TITLE "5:cjc157_1735"
    INDEX 01 01:09:24
  TRACK 59 AUDIO
    TITLE "0:"
    INDEX 01 01:11:37
  TRACK 60 AUDIO
    TITLE "3:cjc157_1736"
    INDEX 01 01:12:07
  TRACK 61 AUDIO
    TITLE "0:"
    INDEX 01 01:13:42
  TRACK 62 AUDIO
    TITLE "4:cjc157_1737"
    INDEX 01 01:14:12
  TRACK 63 AUDIO
    TITLE "0:"
    INDEX 01 01:15:48
  TRACK 64 AUDIO
    TITLE "5:cjc157_1738"
    INDEX 01 01:16:16
  TRACK 65 AUDIO
    TITLE "0:"
    INDEX 01 01:19:27
  TRACK 66 AUDIO
    TITLE "3:cjc157_1739"
    INDEX 01 01:19:70
  TRACK 67 AUDIO
    TITLE "0:"
    INDEX 01 01:21:29
  TRACK 68 AUDIO
    TITLE "4:cjc157_1740"
    INDEX 01 01:21:70
  TRACK 69 AUDIO
    TITLE "0:"
    INDEX 01 01:23:11
  TRACK 70 AUDIO
    TITLE "5:cjc157_1741"
    INDEX 01 01:23:63
  TRACK 71 AUDIO
    TITLE "0:"
    INDEX 01 01:26:13
